HIERARCHY
ROOT Hips
{
    OFFSET 0.000000 0.000000 0.000000
    CHANNELS 6 Xposition Yposition Zposition Zrotation Xrotation Yrotation
    JOINT Spine
    {
        OFFSET -0.000000 14.517291 0.000000
        CHANNELS 3 Zrotation Xrotation Yrotation
        JOINT Spine1
        {
            OFFSET -0.000000 37.558300 0.000000
            CHANNELS 3 Zrotation Xrotation Yrotation
            JOINT Neck
            {
                OFFSET -0.000000 37.404057 3.400369
                CHANNELS 3 Zrotation Xrotation Yrotation
                JOINT Head
                {
                    OFFSET -0.000000 24.785618 -3.540803
                    CHANNELS 3 Zrotation Xrotation Yrotation
                    End Site
                    {
                        OFFSET -0.000000 35.408028 0.000000
                    }
                }
            }
            JOINT LeftShoulder
            {
                OFFSET 6.992933 33.973492 -0.192664
                CHANNELS 3 Zrotation Xrotation Yrotation
                JOINT LeftArm
                {
                    OFFSET 21.527611 0.000000 0.000000
                    CHANNELS 3 Zrotation Xrotation Yrotation
                    JOINT LeftForeArm
                    {
                        OFFSET 56.353916 0.000000 0.000000
                        CHANNELS 3 Zrotation Xrotation Yrotation
                        JOINT LeftHand
                        {
                            OFFSET 47.774071 0.000000 0.000000
                            CHANNELS 3 Zrotation Xrotation Yrotation
                            End Site
                            {
                                OFFSET 26.556021 0.000000 0.000000
                            }
                        }
                    }
                }
            }
            JOINT RightShoulder
            {
                OFFSET -7.065357 33.973492 -0.192664
                CHANNELS 3 Zrotation Xrotation Yrotation
                JOINT RightArm
                {
                    OFFSET -21.527611 0.000000 0.000000
                    CHANNELS 3 Zrotation Xrotation Yrotation
                    JOINT RightForeArm
                    {
                        OFFSET -56.353916 0.000000 0.000000
                        CHANNELS 3 Zrotation Xrotation Yrotation
                        JOINT RightHand
                        {
                            OFFSET -47.774071 0.000000 0.000000
                            CHANNELS 3 Zrotation Xrotation Yrotation
                            End Site
                            {
                                OFFSET -26.556021 0.000000 0.000000
                            }
                        }
                    }
                }
            }
        }
    }
    JOINT LeftUpLeg
    {
        OFFSET 17.704014 0.000000 0.000000
        CHANNELS 3 Zrotation Xrotation Yrotation
        JOINT LeftLeg
        {
            OFFSET -0.000000 -81.181816 0.000000
            CHANNELS 3 Zrotation Xrotation Yrotation
            JOINT LeftFoot
            {
                OFFSET -0.000000 -62.821102 0.000000
                CHANNELS 3 Zrotation Xrotation Yrotation
                JOINT LeftToeBase
                {
                    OFFSET -0.000000 -11.507608 26.556021
                    CHANNELS 3 Zrotation Xrotation Yrotation
                    End Site
                    {
                        OFFSET -0.000000 0.000000 7.081605
                    }
                }
            }
        }
    }
    JOINT RightUpLeg
    {
        OFFSET -17.704014 0.000000 0.000000
        CHANNELS 3 Zrotation Xrotation Yrotation
        JOINT RightLeg
        {
            OFFSET -0.000000 -81.181816 0.000000
            CHANNELS 3 Zrotation Xrotation Yrotation
            JOINT RightFoot
            {
                OFFSET -0.000000 -62.821102 0.000000
                CHANNELS 3 Zrotation Xrotation Yrotation
                JOINT RightToeBase
                {
                    OFFSET -0.000000 -11.507608 26.556021
                    CHANNELS 3 Zrotation Xrotation Yrotation
                    End Site
                    {
                        OFFSET -0.000000 0.000000 7.081605
                    }
                }
            }
        }
    }
}
MOTION
Frames:    13
Frame Time:    0.008333
9.849554    159.246658    -110.581398    -0.186724    -2.154909    39.927357    -1.620552    0.326178    -3.276840    -4.477248    -0.098799    -1.099147    3.550829    0.804123    -15.998734    11.712330    2.036306    -15.745071    5.465483    8.489810    -19.828548    -26.363688    19.585323    -54.084442    -1.379528    -10.307620    -105.454063    5.558491    -12.683307    -12.554876    -7.435471    0.923384    -3.853848    25.429674    -19.410418    49.961330    -22.199423    -18.845598    66.298393    -0.739400    -4.649062    33.624088    16.146471    5.769232    -4.618586    -7.548680    9.233495    -16.865404    -5.177403    -17.013994    38.683777    0.000000    0.000000    0.000000    -12.788711    -10.482001    -11.047211    3.178183    3.420283    -13.421329    5.026731    12.866135    -16.574469    0.000000    0.000000    0.000000    
9.897750    159.231873    -110.545303    -0.192384    -2.182930    39.929585    -1.584447    0.309073    -3.240554    -4.483910    -0.100796    -1.086983    3.571703    0.804071    -15.999821    11.647796    1.958381    -15.749044    5.458754    8.482830    -19.822453    -26.395182    19.569792    -54.080875    -1.402024    -10.239120    -105.479279    5.602807    -12.649304    -12.540666    -7.421007    0.917912    -3.875410    25.404728    -19.404301    49.928017    -22.234583    -18.834997    66.258896    -0.759532    -4.631213    33.649391    16.146793    5.776143    -4.326413    -7.477650    9.345314    -17.042629    -5.183604    -17.077036    38.579407    0.000000    0.000000    0.000000    -12.776751    -10.439681    -10.858410    3.196975    3.413106    -13.480359    5.058313    12.813542    -16.680019    0.000000    0.000000    0.000000    
9.951869    159.217468    -110.516464    -0.187640    -2.208115    39.912521    -1.555311    0.294843    -3.204950    -4.486132    -0.104141    -1.075147    3.570334    0.823962    -15.998061    11.612766    1.873814    -15.742082    5.445659    8.489072    -19.781641    -26.420116    19.577473    -54.097191    -1.400885    -10.231921    -105.482880    5.597398    -12.640798    -12.551484    -7.421586    0.916829    -3.860019    25.408829    -19.447018    49.895210    -22.195774    -18.790751    66.259125    -0.775531    -4.616095    33.635906    16.135157    5.796883    -4.028701    -7.412395    9.445955    -17.217529    -5.194728    -17.135395    38.487232    0.000000    0.000000    0.000000    -12.780639    -10.403824    -10.666105    3.231565    3.413208    -13.539876    5.046692    12.768250    -16.764864    0.000000    0.000000    0.000000    
10.003344    159.204605    -110.491684    -0.183350    -2.223203    39.887196    -1.539664    0.273260    -3.162091    -4.480047    -0.098384    -1.060543    3.555795    0.825421    -15.996829    11.600039    1.814161    -15.734189    5.422863    8.481170    -19.752752    -26.459990    19.572580    -54.089695    -1.423435    -10.196499    -105.498283    5.616240    -12.635772    -12.521176    -7.423850    0.915191    -3.855516    25.401276    -19.457758    49.867973    -22.196165    -18.797182    66.227875    -0.750511    -4.624173    33.667492    16.119652    5.809845    -3.761801    -7.358208    9.544160    -17.352987    -5.199539    -17.178192    38.388512    0.000000    0.000000    0.000000    -12.786739    -10.388616    -10.483018    3.255431    3.431170    -13.584888    5.065530    12.714702    -16.870810    0.000000    0.000000    0.000000    
10.058535    159.190750    -110.471092    -0.170968    -2.233861    39.857838    -1.539418    0.252351    -3.121348    -4.464617    -0.093301    -1.046634    3.547203    0.817412    -15.993921    11.576415    1.784900    -15.730121    5.402613    8.487585    -19.726917    -26.511066    19.555044    -54.078220    -1.458024    -10.163468    -105.504120    5.611822    -12.646798    -12.516822    -7.428399    0.931040    -3.852446    25.397076    -19.478029    49.870071    -22.172419    -18.812136    66.184357    -0.744582    -4.666940    33.685509    16.090376    5.827451    -3.520620    -7.299290    9.635499    -17.470537    -5.215950    -17.236856    38.300873    0.000000    0.000000    0.000000    -12.809785    -10.376558    -10.311502    3.291723    3.460497    -13.629045    5.084471    12.652556    -16.964315    0.000000    0.000000    0.000000    
10.110386    159.180405    -110.456642    -0.152675    -2.233947    39.823086    -1.551888    0.228536    -3.084495    -4.451456    -0.081869    -1.033816    3.562380    0.822188    -15.982332    11.539171    1.719809    -15.718022    5.386305    8.485250    -19.683771    -26.574516    19.534966    -54.070328    -1.479666    -10.117585    -105.496048    5.648485    -12.631673    -12.494948    -7.436950    0.929719    -3.843008    25.381414    -19.449276    49.865265    -22.191738    -18.876488    66.112549    -0.705826    -4.729925    33.673439    16.053196    5.844579    -3.329079    -7.266475    9.703974    -17.534954    -5.211044    -17.259459    38.223969    0.000000    0.000000    0.000000    -12.843231    -10.376521    -10.160356    3.314975    3.499280    -13.669740    5.099670    12.605062    -17.002724    0.000000    0.000000    0.000000    
10.158097    159.172607    -110.442688    -0.134796    -2.231362    39.783867    -1.573454    0.211283    -3.046862    -4.428635    -0.076458    -1.021028    3.566777    0.815981    -15.972596    11.516429    1.677426    -15.707200    5.360537    8.478337    -19.642620    -26.628719    19.529844    -54.054585    -1.499638    -10.093745    -105.496078    5.659743    -12.632456    -12.442270    -7.456713    0.927883    -3.838161    25.387827    -19.427830    49.867485    -22.178949    -18.926952    66.068138    -0.668287    -4.793083    33.667130    16.021809    5.861848    -3.157561    -7.244668    9.767414    -17.594868    -5.227293    -17.290941    38.161587    0.000000    0.000000    0.000000    -12.878164    -10.384233    -10.045679    3.352963    3.540410    -13.723803    5.094172    12.553059    -17.037865    0.000000    0.000000    0.000000    
10.203655    159.164810    -110.432579    -0.120851    -2.224546    39.744637    -1.592020    0.190303    -3.012336    -4.410640    -0.073328    -1.009295    3.565044    0.824046    -15.971217    11.510935    1.630435    -15.701226    5.338551    8.477809    -19.614161    -26.687466    19.511885    -54.030643    -1.527458    -10.053246    -105.488716    5.754465    -12.635952    -12.396602    -7.471733    0.945414    -3.849189    25.390785    -19.397392    49.905102    -22.183880    -18.993322    65.997063    -0.628971    -4.867868    33.661129    15.995355    5.875151    -3.029034    -7.242237    9.819346    -17.638037    -5.217270    -17.317442    38.131794    0.000000    0.000000    0.000000    -12.910014    -10.397512    -9.956040    3.372013    3.582078    -13.739899    5.100270    12.509490    -17.046957    0.000000    0.000000    0.000000    
10.246558    159.159821    -110.421608    -0.099594    -2.219318    39.705498    -1.618514    0.164784    -2.980303    -4.398799    -0.048420    -0.997571    3.585900    0.817468    -15.963088    11.491695    1.592990    -15.694544    5.333205    8.469978    -19.581913    -26.723722    19.514530    -54.014931    -1.533760    -10.066952    -105.480270    5.760928    -12.656630    -12.369668    -7.485111    0.935566    -3.841304    25.395798    -19.368570    49.915745    -22.179333    -19.046885    65.940781    -0.599086    -4.934097    33.638535    15.965327    5.905589    -2.961771    -7.240523    9.841052    -17.635036    -5.215423    -17.325125    38.088936    0.000000    0.000000    0.000000    -12.944269    -10.407304    -9.905925    3.392440    3.622653    -13.783396    5.099555    12.483697    -17.026516    0.000000    0.000000    0.000000    
10.283132    159.155869    -110.405396    -0.085381    -2.215227    39.674309    -1.651687    0.150314    -2.961304    -4.365953    -0.049160    -0.991248    3.581783    0.818277    -15.956351    11.490198    1.576915    -15.685466    5.307986    8.470819    -19.553576    -26.768909    19.496397    -53.978409    -1.557338    -10.031601    -105.471733    5.821430    -12.656158    -12.335749    -7.495352    0.963911    -3.852625    25.409035    -19.347084    49.977333    -22.184574    -19.094223    65.874664    -0.556258    -4.986208    33.634171    15.948643    5.929978    -2.970171    -7.252982    9.854078    -17.612207    -5.222453    -17.350872    38.091148    0.000000    0.000000    0.000000    -12.969095    -10.409170    -9.884106    3.409023    3.648878    -13.802254    5.093188    12.454212    -16.993069    0.000000    0.000000    0.000000    
10.314110    159.150604    -110.381279    -0.073845    -2.219451    39.644199    -1.693629    0.130767    -2.941695    -4.321847    -0.037661    -0.984173    3.593992    0.811534    -15.948316    11.474083    1.573665    -15.680674    5.302682    8.474672    -19.533606    -26.812040    19.483419    -53.953354    -1.573622    -10.014524    -105.459747    5.848840    -12.660437    -12.292702    -7.506326    0.969302    -3.847373    25.409861    -19.310005    50.005280    -22.186026    -19.137146    65.826317    -0.538951    -5.038529    33.591259    15.950129    5.993258    -3.078334    -7.306174    9.842115    -17.541361    -5.160529    -17.399498    38.144970    0.000000    0.000000    0.000000    -12.975768    -10.403947    -9.908815    3.415724    3.665659    -13.821904    5.060324    12.441680    -16.919794    0.000000    0.000000    0.000000    
10.343202    159.148895    -110.358620    -0.067449    -2.225200    39.621487    -1.720306    0.108777    -2.925327    -4.291172    -0.023073    -0.978068    3.598864    0.809879    -15.948827    11.471004    1.565696    -15.681553    5.296032    8.472106    -19.525177    -26.836708    19.479752    -53.920399    -1.586549    -10.002656    -105.455132    5.899944    -12.668263    -12.250051    -7.517022    0.972747    -3.854219    25.416967    -19.277710    50.038177    -22.196774    -19.158171    65.780434    -0.517293    -5.059826    33.570808    15.962157    5.992529    -3.257554    -7.356009    9.832347    -17.479837    -5.144589    -17.383512    38.248131    0.000000    0.000000    0.000000    -12.979210    -10.396072    -9.959094    3.413218    3.686790    -13.773479    5.063456    12.417169    -16.883343    0.000000    0.000000    0.000000    
10.369115    159.143036    -110.328743    -0.065921    -2.245974    39.608959    -1.742783    0.095165    -2.913893    -4.255276    -0.010321    -0.973747    3.602321    0.796333    -15.950411    11.478059    1.590836    -15.685751    5.287327    8.461890    -19.529202    -26.846214    19.487803    -53.882000    -1.606941    -10.002127    -105.450768    5.915514    -12.693883    -12.218598    -7.515946    0.974869    -3.864092    25.423426    -19.256247    50.071987    -22.186337    -19.154741    65.757050    -0.540890    -5.076807    33.537254    15.987939    6.051595    -3.455094    -7.415005    9.822989    -17.426319    -5.071709    -17.457872    38.375423    0.000000    0.000000    0.000000    -12.963041    -10.370759    -10.059759    3.403480    3.696872    -13.738908    5.044344    12.397718    -16.799339    0.000000    0.000000    0.000000    
